<svg xmlns="http://www.w3.org/2000/svg" width="1280" height="720" viewBox="0 0 1280 720">
  <defs>
    <linearGradient id="paper" x1="0" y1="0" x2="1" y2="1">
      <stop offset="0" stop-color="#d8cda7"/>
      <stop offset="0.45" stop-color="#b8c59d"/>
      <stop offset="1" stop-color="#8fae9e"/>
    </linearGradient>
    <radialGradient id="known" cx="50%" cy="45%" r="70%">
      <stop offset="0" stop-color="#f1dfaa" stop-opacity="0.85"/>
      <stop offset="1" stop-color="#748f79" stop-opacity="0.15"/>
    </radialGradient>
    <filter id="softShadow" x="-20%" y="-20%" width="140%" height="140%">
      <feDropShadow dx="0" dy="10" stdDeviation="10" flood-color="#17231e" flood-opacity="0.24"/>
    </filter>
    <pattern id="sectorGrid" width="96" height="96" patternUnits="userSpaceOnUse">
      <path d="M96 0H0V96" fill="none" stroke="#31493c" stroke-opacity="0.22" stroke-width="1"/>
      <path d="M48 0V96M0 48H96" fill="none" stroke="#f7eec7" stroke-opacity="0.12" stroke-width="1"/>
    </pattern>
    <pattern id="fineNoise" width="36" height="36" patternUnits="userSpaceOnUse">
      <circle cx="6" cy="8" r="1.4" fill="#f7eec7" opacity="0.18"/>
      <circle cx="24" cy="17" r="1" fill="#264437" opacity="0.14"/>
      <circle cx="14" cy="29" r="1.2" fill="#6d7953" opacity="0.16"/>
    </pattern>
    <clipPath id="mapClip">
      <rect x="48" y="70" width="860" height="588" rx="22"/>
    </clipPath>
  </defs>

  <rect width="1280" height="720" fill="#14201c"/>
  <rect x="0" y="0" width="1280" height="720" fill="#223229"/>
  <path d="M0 110C180 66 271 132 438 88C606 44 736 79 886 58C1037 37 1154 54 1280 24V0H0Z" fill="#3a5545" opacity="0.55"/>
  <path d="M0 690C177 633 335 678 510 632C696 584 838 625 1018 587C1132 563 1210 571 1280 548V720H0Z" fill="#0e1714" opacity="0.62"/>

  <g filter="url(#softShadow)">
    <rect x="48" y="70" width="860" height="588" rx="22" fill="url(#paper)" stroke="#e8ddb6" stroke-opacity="0.7" stroke-width="2"/>
    <rect x="48" y="70" width="860" height="588" rx="22" fill="url(#sectorGrid)"/>
    <rect x="48" y="70" width="860" height="588" rx="22" fill="url(#fineNoise)"/>
  </g>

  <g clip-path="url(#mapClip)">
    <path d="M72 516C182 455 244 477 322 426C391 381 449 317 535 321C629 324 666 418 757 401C824 388 871 322 929 302V688H42V553C52 542 62 529 72 516Z" fill="#486f61" opacity="0.76"/>
    <path d="M56 240C151 184 234 225 324 178C435 119 535 141 641 114C736 91 822 100 929 74V68H44V279C48 265 51 251 56 240Z" fill="#d9c886" opacity="0.48"/>
    <path d="M121 122C172 163 232 163 286 136C334 111 389 92 452 124C508 153 566 219 637 189C705 160 768 119 887 139" fill="none" stroke="#2e695d" stroke-opacity="0.42" stroke-width="18" stroke-linecap="round"/>
    <path d="M78 548C156 509 210 520 269 484C345 438 376 383 456 402C548 424 602 512 700 491C774 474 827 413 903 394" fill="none" stroke="#2d5d55" stroke-opacity="0.38" stroke-width="20" stroke-linecap="round"/>
    <path d="M168 594C242 528 307 556 374 499C435 447 467 361 545 344C629 326 686 384 743 351C793 322 825 265 904 252" fill="none" stroke="#e0d094" stroke-opacity="0.35" stroke-width="10" stroke-linecap="round"/>
    <circle cx="378" cy="296" r="156" fill="url(#known)" opacity="0.86"/>
    <path d="M236 182L340 132L471 172L564 244L622 349L573 465L434 528L274 500L164 402L149 272Z" fill="none" stroke="#24382f" stroke-opacity="0.18" stroke-width="3"/>

    <image href="/Users/robin/Projects/Portal-atlas-editor/reports/media/agent-town-hq13p-candidate-02-edge-cleanup-review-derivatives-2026-06-01/locked-unknown-fog-v1.edge-cleanup-review.png" x="652" y="86" width="300" height="300" opacity="0.78"/>
    <image href="/Users/robin/Projects/Portal-atlas-editor/reports/media/agent-town-hq13p-candidate-02-edge-cleanup-review-derivatives-2026-06-01/locked-unknown-fog-v1.edge-cleanup-review.png" x="-42" y="377" width="300" height="300" opacity="0.72"/>
    <image href="/Users/robin/Projects/Portal-atlas-editor/reports/media/agent-town-hq13p-candidate-02-edge-cleanup-review-derivatives-2026-06-01/hinted-fog-veil-v1.edge-cleanup-review.png" x="501" y="394" width="246" height="246" opacity="0.72"/>
    <image href="/Users/robin/Projects/Portal-atlas-editor/reports/media/agent-town-hq13p-candidate-02-edge-cleanup-review-derivatives-2026-06-01/hinted-fog-veil-v1.edge-cleanup-review.png" x="95" y="82" width="226" height="226" opacity="0.54"/>

    <path d="M592 102C641 147 680 170 726 194C781 224 825 260 891 277" fill="none" stroke="#f2e4b3" stroke-width="7" stroke-linecap="round" stroke-dasharray="4 18" opacity="0.86"/>
    <path d="M592 102C641 147 680 170 726 194C781 224 825 260 891 277" fill="none" stroke="#213d36" stroke-width="2.4" stroke-linecap="round" stroke-dasharray="2 20" opacity="0.62"/>
    <text x="602" y="96" font-family="Arial, Helvetica, sans-serif" font-size="15" fill="#f8ecc4" opacity="0.88">review-mock-only local stitched boundary</text>

    <g transform="translate(180 468) rotate(-15)">
      <image href="/Users/robin/Projects/Portal-atlas-editor/reports/media/agent-town-hq13q-dotted-line-repair-review-assets-2026-06-01/survey-receipt-stroke-v2.repair-review.png" x="0" y="0" width="470" height="59" opacity="0.82"/>
    </g>

    <image href="/Users/robin/Projects/Portal-atlas-editor/reports/media/agent-town-hq13p-candidate-02-edge-cleanup-review-derivatives-2026-06-01/marker-owned-outpost-v1.edge-cleanup-review.png" x="320" y="235" width="58" height="87"/>
    <image href="/Users/robin/Projects/Portal-atlas-editor/reports/media/agent-town-hq13p-candidate-02-edge-cleanup-review-derivatives-2026-06-01/marker-known-site-plan-v1.edge-cleanup-review.png" x="486" y="323" width="56" height="84"/>
    <image href="/Users/robin/Projects/Portal-atlas-editor/reports/media/agent-town-hq13p-candidate-02-edge-cleanup-review-derivatives-2026-06-01/marker-hinted-unknown-v1.edge-cleanup-review.png" x="655" y="211" width="55" height="83"/>
    <image href="/Users/robin/Projects/Portal-atlas-editor/reports/media/agent-town-hq13p-candidate-02-edge-cleanup-review-derivatives-2026-06-01/marker-hinted-unknown-v1.edge-cleanup-review.png" x="235" y="401" width="42" height="63" opacity="0.88"/>
  </g>

  <rect x="48" y="70" width="860" height="588" rx="22" fill="none" stroke="#f5e7be" stroke-opacity="0.66" stroke-width="2"/>
  <rect x="68" y="91" width="230" height="42" rx="8" fill="#14201c" opacity="0.72"/>
  <text x="86" y="118" font-family="Arial, Helvetica, sans-serif" font-size="20" font-weight="700" fill="#f7ebc4">HQ13S REVIEW MOCK</text>
  <rect x="68" y="610" width="521" height="29" rx="7" fill="#14201c" opacity="0.7"/>
  <text x="86" y="631" font-family="Arial, Helvetica, sans-serif" font-size="15" fill="#f8ecc4">static composition: report-only, not runtime screenshot, not a promoted asset pack</text>

  <g filter="url(#softShadow)">
    <rect x="942" y="70" width="294" height="588" rx="18" fill="#18251f" stroke="#e8ddb6" stroke-opacity="0.35"/>
    <image href="/Users/robin/Projects/Portal-atlas-editor/reports/media/agent-town-hq13p-candidate-02-edge-cleanup-review-derivatives-2026-06-01/hud-selected-sector-frame-v1.edge-cleanup-review.png" x="960" y="95" width="256" height="144"/>
    <text x="982" y="139" font-family="Arial, Helvetica, sans-serif" font-size="17" font-weight="700" fill="#f8ecc4">SELECTED SECTOR</text>
    <text x="982" y="165" font-family="Arial, Helvetica, sans-serif" font-size="13" fill="#d1e5d3">HUD frame review overlay</text>
    <text x="982" y="190" font-family="Arial, Helvetica, sans-serif" font-size="12" fill="#f8ecc4" opacity="0.8">clientAuthority: false</text>

    <text x="972" y="282" font-family="Arial, Helvetica, sans-serif" font-size="14" font-weight="700" fill="#f8ecc4">Composed candidates</text>
    <circle cx="982" cy="317" r="8" fill="#cfe2d0"/><text x="1000" y="322" font-family="Arial, Helvetica, sans-serif" font-size="13" fill="#d6e7d8">fog: hinted + locked unknown</text>
    <circle cx="982" cy="351" r="8" fill="#f2d985"/><text x="1000" y="356" font-family="Arial, Helvetica, sans-serif" font-size="13" fill="#d6e7d8">markers: known, hinted, owned</text>
    <circle cx="982" cy="385" r="8" fill="#ead9a9"/><text x="1000" y="390" font-family="Arial, Helvetica, sans-serif" font-size="13" fill="#d6e7d8">survey receipt trace v2</text>
    <circle cx="982" cy="419" r="8" fill="#a7c6bd"/><text x="1000" y="424" font-family="Arial, Helvetica, sans-serif" font-size="13" fill="#d6e7d8">HUD selected-sector frame</text>
    <circle cx="982" cy="453" r="8" fill="#5b756b"/><text x="1000" y="458" font-family="Arial, Helvetica, sans-serif" font-size="13" fill="#d6e7d8">local stitched boundary only</text>

    <rect x="972" y="506" width="236" height="92" rx="10" fill="#0f1815" stroke="#f1e2b6" stroke-opacity="0.25"/>
    <text x="990" y="534" font-family="Arial, Helvetica, sans-serif" font-size="13" fill="#f8ecc4">Guardrail state</text>
    <text x="990" y="560" font-family="Arial, Helvetica, sans-serif" font-size="12" fill="#d6e7d8">No loader. No runtime promotion.</text>
    <text x="990" y="580" font-family="Arial, Helvetica, sans-serif" font-size="12" fill="#d6e7d8">No app/server/schema edits.</text>
  </g>

  <text x="46" y="42" font-family="Arial, Helvetica, sans-serif" font-size="18" fill="#f8ecc4" opacity="0.9">AgentTown Expedition Map visual-pack candidate context test</text>
  <text x="962" y="42" font-family="Arial, Helvetica, sans-serif" font-size="14" fill="#d6e7d8" opacity="0.84">visible review-only composite, 2026-06-01</text>
</svg>
